<svg width="904" height="473" viewBox="0 0 904 473" fill="none" xmlns="http://www.w3.org/2000/svg">
<path d="M28.2955 232H6.13636L70.2273 57.4545H92.0455L156.136 232H133.977L81.8182 85.0682H80.4545L28.2955 232ZM36.4773 163.818H125.795V182.568H36.4773V163.818ZM183.324 232V57.4545H204.46V213.25H285.597V232H183.324ZM285.575 76.2045V57.4545H416.484V76.2045H361.598V232H340.462V76.2045H285.575Z" fill="black"/>
<path d="M517.545 258.455V433H497.091L401.977 295.955H400.273V433H379.136V258.455H399.591L495.045 395.841H496.75V258.455H517.545ZM559.839 433V258.455H665.18V277.205H580.976V336.182H659.726V354.932H580.976V414.25H666.544V433H559.839ZM817.822 258.455H838.959V374.023C838.959 385.955 836.146 396.608 830.521 405.983C824.953 415.301 817.084 422.659 806.913 428.057C796.743 433.398 784.811 436.068 771.118 436.068C757.425 436.068 745.493 433.398 735.322 428.057C725.152 422.659 717.254 415.301 711.629 405.983C706.061 396.608 703.277 385.955 703.277 374.023V258.455H724.413V372.318C724.413 380.841 726.288 388.426 730.038 395.074C733.788 401.665 739.129 406.864 746.061 410.67C753.05 414.42 761.402 416.295 771.118 416.295C780.834 416.295 789.186 414.42 796.175 410.67C803.163 406.864 808.504 401.665 812.197 395.074C815.947 388.426 817.822 380.841 817.822 372.318V258.455Z" fill="black"/>
<mask id="mask0_114_54" style="mask-type:alpha" maskUnits="userSpaceOnUse" x="149" y="223" width="240" height="240">
<rect x="149" y="223" width="240" height="240" fill="#D9D9D9"/>
</mask>
<g mask="url(#mask0_114_54)">
<path d="M259 433V353H179V333H259V253H279V333H359V353H279V433H259Z" fill="#C4C4C4"/>
</g>
</svg>
